/* XPM */
static char *c4298304a9354b54f093cf620484d858zrWBoj0rgSGAJyNN[] = {
/* columns rows colors chars-per-pixel */
"64 64 9 1 ",
"  c #4E3057",
". c #070404",
"X c #A06DAF",
"o c #523333",
"O c #AE5E23",
"+ c black",
"@ c #9C5624",
"# c #A86B3F",
"$ c #A86B3E",
/* pixels */
"  ..... XXXXX .o....    XXX   .o XXXXXXX   XXXXXXXXXX  .....  XX",
"  .o....XXXXX ....o.   XXXXXX   XXXXXXX .... XXXXXXXXX   o.  XXX",
"  ...o..  XXX ..o.. XXXXXXXXXXXXXXXXXX ...o.   XXXXXXX      XXXX",
"  .....  XXXXX  .. XXXXXOOOOOOOOOOOOOOOOOo... XXXXXXXXXXXX XXXXX",
"XXX ..   XXXXX   XXXXXOOO+++++++++++++++OO...XXXXXXXXXXXXXXXXXXX",
"XXXXXX XXXXXXXXXXXXXXOO++OOOOOOO+OOOOOOO+OOOOXXXXX   XXXXXXXXXX ",
"XXXXXXXXXXXXXXXXXXXOOO+OOO@####O+O#####OO+++OOX       XXXXXX    ",
"  XXXXXXXXXXXXXXXOOO++OO####@@@O+O@@@@#@OOO++OOO  .... XXXXXX   ",
"..  XXXXXXXXXXXXOO++OO@##@@@@@@O+O@@@@@@@@@OO++OO..o..  XXXXX ..",
"..   XXXXXXX   OO+OOO@@@#@@@@@#O+O@@@@@##@@@OOO+OO..... XXX  .o.",
"..o  XXXXXX  .OO+OO@@@@@#@@####O+O####@@@###@@OO+OO..o.XXXXX ...",
".o. XXXXXX  .OO+OO@##@@@@@###@@O+O@@@@@@@@@##@@OO+OO.. XXXXX o..",
"..  XXXXX   OO+OO@@#@@@@@###@@@O+O@@@@@@@@@#####OO+OO   XXXXX...",
".   XXXXX   O++O@##@@#@###@####O+O##@@@@@#####@@#OO+O  XXXXXX  .",
"    XXXXXX OO+OO@@@@########@@#O+O@@@#####@@@##@@#O+OOXXXXXX    ",
"    XXXXXXXO+OO@@@@@###@@@@@###O+O####@@@#@@####@#OO+OXXXXXXX   ",
"  XXXXXXXXOO+O@@@@@###@@@@@###@O+O#@@##@@#@@@#@##@#O+OOXXXXXXX  ",
" XXXXXXXXXO+OO@@@@##@@@@@######O+O@@@@##@#####@@#@#OO+OXXXXXXXXX",
"XXXXXXX  OO+O@@@@##@@@@@#####@@O+O@@@@@##@##@@#@@#@#O+OOXXXXXXXX",
"XXXXXX...O+OO@@##@@@#@@###@#@@@O+O@@#####@@#@@####@@OO+O   XXXXX",
"XXXX ...OO+O@@##@@@#######@@#@@O+O@###@@###@@#@##@@@@O+OO    XXX",
"XXX  ...O+OO@###@@@#######@@###O+O##@##@@##@@#@##@@#@OO+O....  X",
"XXX  .oOO+O@##@##@@####@##@@##@O+O@@@@##@@##@####@@#@@O+O.o..   ",
"XXXX  .O+OO##@###@######@@#####O+O@@@@@#@@@####@#@@#@@O+OO....  ",
"XXXXXX O+O$#@@###@###@@#@######O+O@@#@@##@@####@##@#@@OO+O...o  ",
"XXXXXXXO+O#@@@#####@@@@@@##@##@O+O@##@######@##@@@##@#@O+Oo..   ",
"XXXXXXXO+O@@@@####@@@#@######@@O+O@#@##@@##@@##@@@##@#@O+O..  XX",
"XX XXXXO+O@@@####@@@##@####@@##O+O#@##@####@@@#@@@@#@#@O+O  XXXX",
"      XO+O@@@#@#@@@@######@@##@O+O######@@#@@@#@@@@###@O+O XXXXX",
"  .... O+O@#@#@#@@@@####@@####@O+O@###@@@@@#@##@##@##@@O+OXXXXXX",
" ...o. O+O@#@#@@@@@@###@##@###@O+O##@@@##@@#######@##@@O+OXXXXXX",
" .o..o.O+O@#@##@@@@#####+++#@##O+O#@@@+++@@@####@####@@O+OXXXXXX",
" ...o..O+O@#@##@@####@#+++++###O+O@@@+++++@#######@##@@O+OXXXXXX",
" ..... O+O@#@##########+++++###O+O@##+++++##@###@#@###@O+OXXXXXX",
"X  ..  O+O@#@###@#@###@+++++##@O+O##@+++++#####@@##@@#@O+O XXXXX",
"X   XXXO+O@#@#######@@@@+++##@@O+O@@@@+++@#####@@@#@@#@O+O XXXXX",
"XXXXXXXO+O##@#@#####@@@####@###O+O@@@@@@####@@##@@#@@@@O+O XXXXX",
"XXXXXXXO+O##@###@@##@##@#@@@##@O+O@@@@###@@#@@@#@@#@@@@O+OXXXXXX",
"XXXXXXXO+O##@##@@@####@#@@###@@O+O@@@##@@@@##@@##@@@@@@O+OXXXXX ",
" XXXXXXO+O##@#@@@#####@#@###@@@O+O@##@@@@@@@##@@#@#@@@@O+OXXXX  ",
"  XXXXXO+O@###@@##@@@#@####@@@@O+O##@@@@@######@####@@@O+OXXX   ",
".  XXXXO+O@##@##@@@#######@@@@@O+O@@@@####@#####@####@@O+OXX ...",
".  XXXXO+O@@#@#@@@@###@##@@@@##O+O@@@###@@@@#@#####@#@@O+OX .o..",
".. XXXXO+O@@#@@@@###@@##@@@@###O+O###@@#@@@@@#####@@##@O+OX ..o.",
"o. XXXXO+O@@#@@@##@@@##@@@@##@@O+O#@@@@##@@######@@@@##O+OXX.o..",
".  XXXXO+O#@####@@@@#@#@@###@@#O+O#@@@@@####@@####@@@@#O+OXX....",
"   XXXXO+O#@####@@@#@@#@#######O+O###@@@###@@@@#####@@#O+OXX  ..",
"  XXXXXO+O##@##@#@#@@@#@####@@@O+O#@##@@@#####@###@@@@@O+OXXXX  ",
"XXXXXXXO+O#@######@@@@@##@@@@@@O+O@@#########@@###@@@@@O+OXXXXX ",
"XXXXXXXO+O@@#@######@@######@##O+O@@@#@@@#@##@#@####@@@O+OXXXXXX",
"XXXXXX O+O@@########@###@@@#@@@O+O@@@##@@#######@@##@@@O+O XXXXX",
"XXX    O+O#@##@@##@@####@@#####O+O@@@@##@@#####@@@@@@@@O+O XXXXX",
"XXX  ..O+O@@#@@@#######@##@###@O+O##@@@#@@#@#####@@@@@@O+O  XXXX",
"XXXX.o.O+O@@@@@@#@@##@@@@##@#@@O+O@##@@##@##########@@@O+O  XXXX",
"XXXX...O+O@@@@@@#@##@@@@@@#@@@@O+O@@####@##@@@@@@##@@@@O+O XXXXX",
"XXXX.o.O+OOOOOOOOOOOOOOOOOOOOOOO+OOOOOOOOOOOOOOOOOOOOOOO+OXXXXXX",
"XXXX...O+++++++++++++++++++++++++++++++++++++++++++++++++OXXXXXX",
"XXXX  .OOOOOOOOOOOOOOOOOOOOOOOOOOOOOOOOOOOOOOOOOOOOOOOOOOOXXXXXX",
"XXXXXX   XXXXXXXXXXXXXXXXXX        XXXX  .o...   XXXXXXXX   XXXX",
"XXXXXXXXXXXXXXXXXXXXXXXXXX   .... XXXXXX   ..   XXXXXXX      XXX",
"XXXXXXXXXXXXXX     XXXXXXX  ...o. XXXXXXX      XXXXXXXX .... XXX",
"XX XXXXXXXXXX       XXXXXXX ..o...  XXXXXXXXXXXXXXXXXXX.o...  XX",
"X       XXXXX  .... XXXXXXX .o..o.  XXXXXXXXXXXXXXXXX  ....o. XX",
"X  ..o XXXXXX ..o.. XXXXXXX ..... XX XXXXXXXXXXXXXXXX  ..o...   "
};
