/* XPM */
static char *_d8ecd952bc147c9bfb7766d324804acKmT8WCA0L6gbKMfr[] = {
/* columns rows colors chars-per-pixel */
"64 64 4 1 ",
"  c #4E3057",
". c #070404",
"X c #A06DAF",
"o c #523333",
/* pixels */
"  ..... XXXXX .o....    XXX   .o XXXXXXX   XXXXXXXXXX  .....  XX",
"  .o....XXXXX ....o.   XXXXXX   XXXXXXX .... XXXXXXXXX   o.  XXX",
"  ...o..  XXX ..o.. XXXXXXXXXXXXXXXXXX ...o.   XXXXXXX      XXXX",
"  .....  XXXXX  .. XXXXX XXXXXXXXXXX   ..o... XXXXXXXXXXXX XXXXX",
"XXX ..   XXXXX   XXXXXXX    XXXXXXXXX  o.....XXXXXXXXXXXXXXXXXXX",
"XXXXXX XXXXXXXXXXXXXX  o...   XXXXXXXX ...o. XXXXX   XXXXXXXXXX ",
"XXXXXXXXXXXXXXXXXXXXX .....  XXXXXXXXXXX .. XXX       XXXXXX    ",
"  XXXXXXXXXXXXXXXXXXX ..o... XXXXXXXXXXXXXXXXXXX  .... XXXXXX   ",
"..  XXXXXXXXXXXXXXXX  ....o.XXXXX   XXXXXXXXXXXX ..o..  XXXXX ..",
"..   XXXXXXX      XXX ..o.. XXXXX .... XXXXXXX   ...... XXX  .o.",
"..o  XXXXXX  ....  XX   ..  XXXXX.o...  XXXXXX   o...o.XXXXX ...",
".o. XXXXXX  ...o.  XXX      XXX  ...... XXXXX    ..... XXXXX o..",
"..  XXXXX   ..o... XXXXXXXXXXXXX ....o. XXXXXXXXX  ..   XXXXX...",
".   XXXXX   ...... XXXXXXXXXXXXX ..o..  XXXXXXXXX      XXXXXX  .",
"    XXXXXX   ..o. XXXX   XXXXXXX   ..    XXXXXXXXXXXXXXXXXXX    ",
"    XXXXXXXX  .. XXXX .... XXXXX    XXXXXXXXXXXXXXXXXXXXXXXXX   ",
"  XXXXXXXXXXXXX XXXX ..o.. XXXXXXXXXXXXXXXXXXXXXXXXXXXXXXXXXXX  ",
" XXXXXXXXXXXXXXXXXX  ....o. XXXXXXXXX    XXXXXXXXXXXXXXXXXXXXXXX",
"XXXXXXX    XXXXXXXXX .o.... XXXXX   ....  XXXXXXXXXXXXXXXXXXXXXX",
"XXXXXX.... XXXXXXXXX  .... XXXXXX  ..o.. XXXXXX  XXXXXXX   XXXXX",
"XXXX ...o. XXXXXXX     ..XXXXXXXXX ......XXXXX    XXXXXX     XXX",
"XXX  ......XXXXXXX      XXXXXXXXXXX.o.o..     ....XXXXX  ....  X",
"XXX  .o.o..XXXXXXXXXXXXXXXXXXXXXXXX ....XXX  ..o.. XXXXX..o..   ",
"XXXX  .... XXXXXXXXXXXXXXXXX     XXX ..XXXXX ......XXXXX......  ",
"XXXXXX ..  XXXXXXXXXXXXXXXX  ....XXXXX XXXXX .o...oXXXXX.....o  ",
"XXXXXXXXX XXXXXXX XXXXXXX   ..o.. XXXXXXXXXX  .... XXXXX .o..   ",
"XXXXXXXXXXXXXXX     XXXXXX  .o....XXXXXXXXXXX  ..   XXX   ..  XX",
"XX XXXXXXXXXX        XXXXX  ...... XXXXXXXXXXX     XXXXX    XXXX",
"      XXXXXXX   o... XXXXXX  .o.o XXXX   XXXXXXXXXXXXXXX   XXXXX",
"  .... XXXXXX  .....  XXXXX   ..  XXX     XXXXXXXXXXXXXXXXXXXXXX",
" ...o.  XXXXX  ...... XXXXXXXX   XXX  .... XXXXXXXXXXXXXXXXXXXXX",
" .o..o. XXXXX  ..o.o. XXXXXXXXX XXXX ..o..   XXXXXX  XXXXXXXXXXX",
" ...o.. XXXXX   .... XXXXXXXXXXXXX   ..o...  XXXXX      XXXXXXXX",
" .....  XXXXXX   .. XXXXXXXXXXXXXXX  ...o.. XXXXXX  .... XXXXXXX",
"X  ..   XXXXXXX    XXXXXX   XXXXXXX   ....XXXXXXXX .....   XXXXX",
"X   XXXXXXXXXXXXX XXXXX  .... XXXXXX   ..XXXXXXXX  ..o...  XXXXX",
"XXXXXXXXXXXXXXXXXXXXXXX ..o..  XXXXXX XXXXXXXXXXXXX.o..o.  XXXXX",
"XXXXXXXXXXX XXXXXXXXX   ......  XXXXXXXXXXXXXX XXXXX....  XXXXXX",
"XXXXXXXXXXX    XXXXXXX  .o....  XXXXXXXXXXXXX  XXXXX ..  XXXXXX ",
" XXXXXXXXXX    XXXXXXX    ..o   XXXXXXXXX  .... XXXXXX XXXXXXX  ",
"  XXXXXX  ....  XXXXX     ..   XXXXXXXXX  ....o XXXXXXXXXXXXX   ",
".  XXXXX ..o..  XXXXXXX     XXXXXXXXXXXX  .o.... XXXXXXXXXXX ...",
".  XXXXX o..... XXXXXXXX  XXXXXXXXXXXXXXX ...o..  XXXXXXXXX .o..",
".. XXXXX ...... XXXXXXXXXXXXXXXXXX  XXXXXX .... XXXXXXXXXXX ..o.",
"o. XXXXX  ...o  XXXXXXXXXXXXXXXX     XXXXXX .. XXXXXXXXXXXXX.o..",
".  XXXXX   ..   XXX  XXXXXX      .... XXXXX   XXXXXXX  XXXXX....",
"   XXXXXX    XXXXXXX  XXXXXX    ..o.. XXXXXXXXXXXXXX     XXX  ..",
"  XXXXXXXXXXXXXXXXXX   XXXXXX   ......XXXXXXXXXXXXX ....XXXXXX  ",
"XXXXXXXXXXXXXXXXXXX    XXXXXX   ...o.. XXXXXXXXXXX .o...XXXXXXX ",
"XXXXXXXXXXXXXXXX   .... XXXXXX   o...  XXXXXXXXX   ....o. XXXXXX",
"XXXXXX   XXXXXX   ..o..  XXXXXXX  ..  XXXXXXXXXXX  ......  XXXXX",
"XXX      XXXXXX   ......  XXXXXX    XXXXXXXXXXXXXX ..o..   XXXXX",
"XXX  .... XXXXXX  .o....  XXXXX   XXXXXXXXX   XXXXX  .o     XXXX",
"XXXX.o.o.  XXXXX   ..o.   XXXXXX XXXXXXXX     XXXXXX        XXXX",
"XXXX...... XXXXXX   ..     XXXXXXXXXXXX   ....  XXXXX      XXXXX",
"XXXX.o.o..  XXXXXX      XXXXXXXXXXXXXX   ..o.. XXXXXX XXXXXXXXXX",
"XXXX.....  XXXXXXXX    XXXXXXXXXXXXXXXX  ......XXXXXXXXXXXXXXXXX",
"XXXX  ..  XXXXXXXXXXXXXXXXXXXXX   XXXXX  ....o.   XXXXXXXXXXXXXX",
"XXXXXX   XXXXXXXXXXXXXXXXXX        XXXX  .o...   XXXXXXXX   XXXX",
"XXXXXXXXXXXXXXXXXXXXXXXXXX   .... XXXXXX   ..   XXXXXXX      XXX",
"XXXXXXXXXXXXXX     XXXXXXX  ...o. XXXXXXX      XXXXXXXX .... XXX",
"XX XXXXXXXXXX       XXXXXXX ..o...  XXXXXXXXXXXXXXXXXXX.o...  XX",
"X       XXXXX  .... XXXXXXX .o..o.  XXXXXXXXXXXXXXXXX  ....o. XX",
"X  ..o XXXXXX ..o.. XXXXXXX ..... XX XXXXXXXXXXXXXXXX  ..o...   "
};
