/* XPM */
static char *_9e9e1e6554e4175a469b3b3f9568ccew4THZ96tZQcE8FNv[] = {
/* columns rows colors chars-per-pixel */
"64 64 215 2 ",
"   c #070404",
".  c #0A0406",
"X  c #17060A",
"o  c #1B0714",
"O  c #2B0A0E",
"+  c #210718",
"@  c #370929",
"#  c #551119",
"$  c #420E14",
"%  c #6B151F",
"&  c #450B2F",
"*  c #701520",
"=  c #523333",
"-  c #6E3236",
";  c #5A0E46",
":  c #6D1055",
">  c #592F5E",
",  c #4E3057",
"<  c #5C3056",
"1  c #772F53",
"2  c #693054",
"3  c #633055",
"4  c #7F146D",
"5  c #5E2E61",
"6  c #5F3070",
"7  c #682C66",
"8  c #732B6D",
"9  c #7A2B74",
"0  c #861927",
"q  c #951C2B",
"w  c #A01D2E",
"e  c #B82234",
"r  c #AC2838",
"t  c #CC2539",
"y  c #83114E",
"u  c #9C145C",
"i  c #892E55",
"p  c #962F50",
"a  c #982F50",
"s  c #AA2E4F",
"d  c #B32E4E",
"f  c #BB2E4D",
"g  c #89136B",
"h  c #8C1574",
"j  c #971475",
"k  c #A81564",
"l  c #AA1674",
"z  c #872A71",
"x  c #B8257E",
"c  c #C82E4C",
"v  c #D72E48",
"b  c #ED2B43",
"n  c #EB2D49",
"m  c #E22D4A",
"M  c #F52C45",
"N  c #FA2D47",
"B  c #F62D48",
"V  c #FB2F4A",
"C  c #F7324F",
"Z  c #F9304D",
"A  c #EC3A5B",
"S  c #EF3757",
"D  c #F33554",
"F  c #CB197E",
"G  c #CF247B",
"H  c #E63D61",
"J  c #DD446C",
"K  c #D84771",
"L  c #D64974",
"P  c #D34A77",
"I  c #CD4E7D",
"U  c #E14167",
"Y  c #3F1088",
"T  c #491391",
"R  c #6E1CAA",
"E  c #5E22BA",
"W  c #7221B4",
"Q  c #661397",
"!  c #5715C6",
"~  c #5D16D2",
"^  c #7B1BC8",
"/  c #621ED6",
"(  c #721CD6",
")  c #5F20C7",
"_  c #7723DB",
"`  c #7730D2",
"'  c #6419EB",
"]  c #661BE8",
"[  c #711BED",
"{  c #6719F5",
"}  c #6A1BF5",
"|  c #701BF2",
" . c #7B2EE2",
".. c #6D21F1",
"X. c #7623F2",
"o. c #6E21EF",
"O. c #971B91",
"+. c #A81784",
"@. c #B2188B",
"#. c #972783",
"$. c #86279A",
"%. c #902495",
"&. c #A7248D",
"*. c #AB2395",
"=. c #B32395",
"-. c #BE2580",
";. c #BD1AA3",
":. c #842AAB",
">. c #9620AC",
",. c #9A26B7",
"<. c #9330BC",
"1. c #9030B7",
"2. c #8A30AF",
"3. c #B728BB",
"4. c #C91A9D",
"5. c #E61B88",
"6. c #FB1F95",
"7. c #C62482",
"8. c #D5228A",
"9. c #C5219F",
"0. c #DF3A9F",
"q. c #E6218E",
"w. c #EA2B9A",
"e. c #FA2298",
"r. c #F12A9B",
"t. c #F6269A",
"y. c #E4349E",
"u. c #E8319D",
"i. c #D71EA9",
"p. c #DB1DAC",
"a. c #D31CA4",
"s. c #CF1FB8",
"d. c #E41DB2",
"f. c #E01EAF",
"g. c #CC20A3",
"h. c #C922AB",
"j. c #D426AE",
"k. c #D93EA1",
"l. c #DD25B2",
"z. c #D52EB2",
"x. c #DA29B1",
"c. c #D526B9",
"v. c #CE37B2",
"b. c #CB3AB2",
"n. c #C73CBC",
"m. c #D232B2",
"M. c #C932B0",
"N. c #E121B2",
"B. c #BF588D",
"V. c #B65E96",
"C. c #BB5B92",
"Z. c #AE639F",
"A. c #BC4CB1",
"S. c #BF44BE",
"D. c #AE5CB1",
"F. c #B455B0",
"G. c #B258B0",
"H. c #B751B4",
"J. c #AC5FAF",
"K. c #A768A7",
"L. c #A666AF",
"P. c #A962AF",
"I. c #A06DAF",
"U. c #AB65A2",
"Y. c #A662BD",
"T. c #C75384",
"R. c #C45587",
"E. c #CC48A5",
"W. c #C442B2",
"Q. c #C048B0",
"!. c #D343A2",
"~. c #8D1BD0",
"^. c #972BC8",
"/. c #9726D4",
"(. c #8438DB",
"). c #8826DD",
"_. c #A62DC4",
"`. c #B928CA",
"'. c #A52BDA",
"]. c #A92BD9",
"[. c #A830DC",
"{. c #BD3DDF",
"}. c #B429DC",
"|. c #8426EA",
" X c #8532E6",
".X c #9428F7",
"XX c #8326F3",
"oX c #AD2CE5",
"OX c #B62CE6",
"+X c #AB38E8",
"@X c #BA3CED",
"#X c #B637EB",
"$X c #A72BFB",
"%X c #B92EF3",
"&X c #BC2FFA",
"*X c #B32DFA",
"=X c #AA34F2",
"-X c #BC35F5",
";X c #BB3AF2",
":X c #BE32FB",
">X c #B731F5",
",X c #C739C6",
"<X c #D02BD2",
"1X c #C42EF4",
"2X c #C031FD",
"3X c #C232F3",
"4X c #C231EA",
"5X c #AC56CD",
"6X c #B24BDB",
"7X c #B745DA",
"8X c #AF51D4",
"9X c #B44DCB",
"0X c #AD43E3",
"qX c #B740E9",
"wX c #B545E2",
/* pixels */
", ,           , I.I.I.I.I.,   =         , , , , I.I.I., , ,   = , I.I.I.I.I.I.I., , , I.I.I.I.I.I.I.I.I.I., ,           , , I.I.",
", ,   =         I.I.I.I.I.,         =   , , , I.I.I.I.I.I., , , I.I.I.I.I.I.I.,         , I.I.I.I.I.I.I.I.I., , , =   , , I.I.I.",
", ,       =     , , I.I.I.,     =     , I.I.I.I.I.I.I.I.I.I.I.I.I.I.I.I.I.I.,       =   , , , I.I.I.I.I.I.I., , , , , , I.I.I.I.",
", ,           , , I.I.I.I.I., ,     , I.I.I.I.I., I.I.I.I.I.I.I.I.I.I.I., , ,     =       , I.I.I.I.I.I.I.I.I.I.I.I., I.I.I.I.I.",
"I.I.I.,     , , , I.I.I.I.I., , , I.I.I.I.I.I.I., , , , I.I.I.I.I.I.I.I.I., , =           I.I.I.I.I.I.I.I.I.I.I.I.I.I.I.I.I.I.I.",
"I.I.I.I.I.I., I.I.I.I.I.I.I.I.I.I.I.I.I.I., , =       , , , I.I.I.I.I.I.I.I.,       =   , I.I.I.I.I., , , I.I.I.I.I.I.I.I.I.I., ",
"I.I.I.I.I.I.I.I.I.I.I.I.I.I.I.I.I.I.I.I.I.,         O i , I.I.I.I.I.I.I.I.I.I.I.,     , I.I.I., , , , , , , I.I.I.I.I.I., , , , ",
", , I.I.I.I.I.I.I.I.I.I.I.I.I.I.I.I.I.I.I.,     =   0 M , I.I.I.I.I.I.I.I.I.I.I.I.I.I.I.I.I.I.I., ,         , I.I.I.I.I.I., , , ",
"    , , I.I.I.I.I.I.I.I.I.I.I.I.I.I.I.I., ,         r M I.I.I.I.I., , , I.I.I.I.I.I.I.I.I.I.I.I.,     =     , , I.I.I.I.I.,     ",
"    , , , I.I.I.I.I.I.I., , , , , , I.I.I.,     =   t n I.I.I.I.I.,         , I.I.I.I.I.I.I., , ,             , I.I.I., ,   =   ",
"    = , , I.I.I.I.I.I., ,         , , I.I.3 p ,     n c I.I.I.d.x.  =       , , I.I.I.I.I.I., , , =       =   I.I.I.I.I.,       ",
"  =   , I.I.I.I.I.I., ,       =   , , I.I.P B , , , n c I.I.I.d.j.            , I.I.L V I., , , ,           , I.I.I.I.I., =     ",
"    , , I.I.I.I.I., , ,     =       , I.I.K.Z Z.I.I.S U I.I.m.d.f.g       =   , I.D V T.I.I.I.I.I., ,     , , , I.I.I.I.I.      ",
"  , , , I.I.I.I.I., , ,             , I.I.I.D H I.I.R.K.I.A.f.d.d.a.; =     , p Z D I.I.I.I.I.I.I., , , , , , I.I.I.I.I.I., ,   ",
", , , , I.I.I.I.I.I., , ,     = . , I.I.I.I.f n , I.I.I.K.N.d.x.a.d.g.o   , d N f I.I.I.I.I.I.I.I.I.I.I.I.I.I.I.I.I.I.I., , , , ",
", , , , I.I.I.I.I.I.I.I., ,     , K U I.I., 0 M     , I.m.d.d.@X3.f.p.*.I.I.S T.I.I.I.I.I.I.T.Z.I.I.I.I.I.I.I.I.I.I.I.I.I., , , ",
", , I.I.I.I.I.I.I.I.I.I.I.I.I., I.V.V T.,   % N .   , Q.d.d.A.;X;XW.d.l.A.I.I.I.I.I.I.I.I.C Z V.I.I.I.I.I.I.I.I.I.I.I.I.I.I., , ",
", I.I.I.I.I.I.I.I.I.I.I.I.I.I.I.I.I.K N <     M O = @ j.d.m.wX:X;X4Xc.d.z.7 , , , I.I.I.C C I.I.I.I.I.I.I.I.I.I.I.I.I.I.I.I.I.I.",
"I.I.I.I.I.I.I., , , , I.I.I.I.I.I.I.I.H N   = e q . @.d.d.wX3X2X2X-X4Xf.d.h . . , , I.A C I.I.I.I.I.I.I.I.I.I.I.I.I.I.I.I.I.I.I.",
"I.I.I.I.I.I.        , I.I.I.I.I.I.I.I.K.N c     . : p.d.S.@X@X:X2X&X[.4 d.a.;   , I.J Z U.I.I., , I.I.I.I.I.I.I., , , I.I.I.I.I.",
"I.I.I.I.,       =   , I.I.I.H Z.I.I., , 1 f ,   & z.d.n.@X-X6X6X@X-X>X>.+.f.+.@   C.Z T.I.I., , , s C B.I.I.I.I., , , , , I.I.I.",
"I.I.I., ,             I.I.I.A D K.I., , , , , 5 v.d.l.D.@X2X+X X.X-X;XOXi a.d.g X , , , , ,     0 N K I.I.I.I., ,         , , I.",
"I.I.I., ,   =   =     I.I.I.K.Z N U.I.I.I.I.I.A.N.d.<X@X@X6X X{ X..X#X=X].3.d.p.A.I.I., ,     m M 0 , I.I.I.I.I.    =     , , , ",
"I.I.I.I., ,         , I.I.I.I.K.S V H U.I.I.F.x.d.W.-X:X:.! ] ) ' | =X2X2XOX+.d.m.J.I.I., # M M       I.I.I.I.I.            , , ",
"I.I.I.I.I.I.,     , , I.I.I.I.I.I.T.C K I.P.v.d.x.H.;X=XE ' ^ 4.{ } XX:X:X6X9 x.d.W.L.I.3 M t .     = I.I.I.I.I.          = , , ",
"I.I.I.I.I.I.I.I.I., I.I.I.I.I.I.I., I.I.I.Q.d.f.Q.>X*X[ ' T z 5.~.{ [ *X2X-XqXn.N.d.F.L.< 1         , I.I.I.I.I.,   =     , , , ",
"I.I.I.I.I.I.I.I.I.I.V.A I.I.I., , , , , G.x.d.<X@X*X|.' ! G k k x ~ { XX2X-XwX9Xm.d.x.P.I., ,     , s m I.I.I., , ,     , , I.I.",
"I.I., I.I.I.I.I.I.I.K.Z S < , , , , , 7 =.d.x.7X-X.X' W y y k F k Q { |  X8X2X2XF.x.d.b.L.I., , s N B J I.I.I.I., , , , I.I.I.I.",
", , , , , , I.I.I.I.I.Z.Z N 2 , =   X ; d.N.,X:X2XXX..%.8.& G 5.e.8. .} } ;X:X>X6 W.N.d.F.I.I.V.V L I.I.I.I.I.I., , , I.I.I.I.I.",
", ,         , I.I.I.I.I.I.v N       @ a.d.*.@X2X$XX...*.x q.5.k 7.8.0./.X.|.[.oX].:.m.d.N.K.I.U.V.I.I.I.I.I.I.I.I.I.I.I.I.I.I.I.",
",       =   , , I.I.I.I.I., 2     j +.d.@.9 ;X0X| }  .v.0.6.6.7.x E.E.).{ { T ]./.:.`.l.d.v.b.I.I.I.I.V.J T.I.I.I.I.I.I.I.I.I.I.",
",   =     =   , I.I.I.I.I., ,     d.d.d.j <.>X X} } _.k.!.e.e.x y.0.y.j./ { ' <.oX:X:Xj.d.d.d.I.I.V.K V m B.I.I.I.I.I.I.I.I.I.I.",
",       =     , I.I.I.I.I., , ,   a.i.d.=.@X$X} { | s.y.r.u.u.u.E.u.q.5.' { ! /.oX%XOXh.d.N.N.I.I.S n a , , , , I.I.I.I.I.I.I.I.",
",           , , I.I.I.I.I.I., , , @ ; d.N.,X0X} X.} | e.u.e.t.!.u.w.r.%.} ' R -X2X&Xg p.d.H.J.I.I.I., ,         , I.I.I.I.I.I.I.",
"I., ,     , , , I.I.I.C.V D K., , , 5 b.d.z.G.=X=X' { ~.M.6.e.k.!.u.E.E ' / ].%X].`.x.d.W.L.I.I.I.I.,           , , , I.I.I.I.I.",
"I., , , I.I.I.I.I.I.I.I.Z.C V R.I., I.G.x.d.b.$.2.^ { { [ q.u.r.y.r.(.} _ 1.&X-X}.z.d.x.P.I.J P K., ,     =       , , I.I.I.I.I.",
"I.I.I.I.I.I.I.I.I.I.I.I.I.I.K N K.I.I.I.H.d.N.3.oX*X[ { { ~.q.r.r./.} } $X:X;X@X,Xd.d.F.I.I.K Z Z D R.X =     =   , , I.I.I.I.I.",
"I.I.I.I.I.I.I.I.I.I.I., I.I.I.P U.I.I.I.L.+.d.9.>.:X<.Y { | p.7./.} } XX-X:X:XS.x.d.W.L.I.I., I.C.S V Z e       , , I.I.I.I.I.I.",
"I.I.I.I.I.I.I.I.I.I.I., , , , I.I.I.I.I.I.G.4.d.+.%X&XE ! ' [ :...{ (.;X;X8X@Xm.d.m.P.I.I., , I.I.I.I.C.a .   , , I.I.I.I.I.I., ",
", I.I.I.I.I.I.I.I.I.I., , , , I.I.I.I.I.I.I.#.p.d.3.OX)._ ' { / .. .@X&XwX7XW.d.f.9 ,         , I.I.I.I.I.I., I.I.I.I.I.I.I., , ",
", , I.I.I.I.I.I., ,         , , I.I.I.I.I., > *.f.c.%.oX*X( { {  .5X:X:X6X,Xx.N.&.>         = , I.I.I.I.I.I.I.I.I.I.I.I.I., , , ",
"  , , I.I.I.I.I.,     =     , , I.I.I.I.I.I.I.8 g.d.h.OX2X+X} } (.Y.:X:X4Xc.N.m.7 ,   = * O     , I.I.I.I.I.I.I.I.I.I.I.,       ",
"  , , I.I.I.I.I., =           , V.K D D V D I.I.#.i.d.<X3X8X-X2XwX5X;X-X<Xd.x.H.I.,     t N O   , , I.I.I.I.I.I.I.I.I.,   =     ",
"    , I.I.I.I.I.,       # M N N V Z H P I.I.I.I.I.v.d.d.1X@X5XqX;XqX^.`.d.d.W.L.I.I.,   X t M f I.I.I.I.I.I.I.I.I.I.I.,     =   ",
"=   , I.I.I.I.I., ,       - 2 , I.I.I.I.I.I.I.I.I.J.x.d.<X2X:X8X+X:X,.h.d.m.P.I.I.I.I.,     p Z Z Z.I.I.I.I.I.I.I.I.I.I.  =     ",
"  , , I.I.I.I.I., , ,     , , , I.I.I., , I.I.I.I.I.A.i.d.<X&X2X&X%Xh d.4.z I.I.T.Z.I., , , I.I.A Z T.I.I., , I.I.I.I.I.        ",
", , , I.I.I.I.I.I., , , , I.I.I.I.I.I.I., , I.I.I.I.I.m.d.d.1X&X:X>.d.p.g , I.I.A A I.I.I.I.I.I.I.K D I., , , , , I.I.I., ,     ",
", , I.I.I.I.I.I.I.I.I.I.I.I.I.I.I.I.I.I., , d J I.I.I.P.f.d.i.<.].4.d.@.o   I.I.Z.Z S K.I.I.I.I.I.I.I.,         I.I.I.I.I.I., , ",
"I.I.I.I.I.I.I.I.I.I.I.I.I.I.I.I.I.I.V.s n N N L I.I.I.I.A.j.d.&.g d.4.i     , I.I.Z.Z C Z.I.I.I.I.I.,   =       I.I.I.I.I.I.I., ",
"I.I.I.I.I.I.I.I.I.I.I.I.I.I.I.I., , v N w $   , I.I.I.I I.v.d.d.d.j.g     , , I.I.I.K.S Z Z.I.I., , ,         =   , I.I.I.I.I.I.",
"I.I.I.I.I.I., , , I.I.I.I.I.I., , ,     =     , , I.D S I.I.N.d.d.g.    , d S I.I.I.I.I.A V Z.I.I., ,             , , I.I.I.I.I.",
"I.I.I., , , , , , I.I.I.I.I.I., , ,             d B V I.I.I.F.d.p.8 , , I.T.V K.I.I.I.I.I.S J I.I.I.,     =     , , , I.I.I.I.I.",
"I.I.I., ,         , I.I.I.I.I.I., ,   =   q b M N p I.I.I.I.I.d.i., I.I.I.I.S A I.I.I., , , I.I.I.I.I., ,   = , , , , , I.I.I.I.",
"I.I.I.I.  =   =   , , I.I.I.I.I., , ,   O M e , , , I.I.I.I.I.I., I.I.I.I.I.T.N K., , , , , I.I.I.I.I.I., , , , , , , , I.I.I.I.",
"I.I.I.I.            , I.I.I.I.I.I., , ,     , , , , , I.I.I.I.I.I.I.I.I.I.I.I.n c ,         , , I.I.I.I.I., , , , , , I.I.I.I.I.",
"I.I.I.I.  =   =     , , I.I.I.I.I.I., , , , , , I.I.I.I.I.I.I.I.I.I.I.I.I.I., d 1     =     , I.I.I.I.I.I., I.I.I.I.I.I.I.I.I.I.",
"I.I.I.I.          , , I.I.I.I.I.I.I.I., , , , I.I.I.I.I.I.I.I.I.I.I.I.I.I.I.I., ,             I.I.I.I.I.I.I.I.I.I.I.I.I.I.I.I.I.",
"I.I.I.I., ,     , , I.I.I.I.I.I.I.I.I.I.I.I.I.I.I.I.I.I.I.I.I., , , I.I.I.I.I., ,         =   , , , I.I.I.I.I.I.I.I.I.I.I.I.I.I.",
"I.I.I.I.I.I., , , I.I.I.I.I.I.I.I.I.I.I.I.I.I.I.I.I.I., , , , , , , , I.I.I.I., ,   =       , , , I.I.I.I.I.I.I.I., , , I.I.I.I.",
"I.I.I.I.I.I.I.I.I.I.I.I.I.I.I.I.I.I.I.I.I.I.I.I.I.I., , ,       . , I.I.I.I.I.I., , ,     , , , I.I.I.I.I.I.I., , , , , , I.I.I.",
"I.I.I.I.I.I.I.I.I.I.I.I.I.I., , , , , I.I.I.I.I.I.I., ,       =   , I.I.I.I.I.I.I., , , , , , I.I.I.I.I.I.I.I.,         , I.I.I.",
"I.I., I.I.I.I.I.I.I.I.I.I., , , , , , , I.I.I.I.I.I.I.,     =       , , I.I.I.I.I.I.I.I.I.I.I.I.I.I.I.I.I.I.I.  =       , , I.I.",
"I., , , , , , , I.I.I.I.I., ,         , I.I.I.I.I.I.I.,   =     =   , , I.I.I.I.I.I.I.I.I.I.I.I.I.I.I.I.I., ,         =   , I.I.",
"I., ,     = , I.I.I.I.I.I.,     =     , I.I.I.I.I.I.I.,           , I.I., I.I.I.I.I.I.I.I.I.I.I.I.I.I.I.I., ,     =       , , , "
};
