/* XPM */
static char *_f11518e55154725f46223777f5b5b7c43aWk6jcd4ybUnK7[] = {
/* columns rows colors chars-per-pixel */
"64 64 209 2 ",
"   c #070404",
".  c #07120C",
"X  c #071B12",
"o  c #08301F",
"O  c #072619",
"+  c #083422",
"@  c #083D27",
"#  c #523333",
"$  c #084B30",
"%  c #494A3F",
"&  c #4E3057",
"*  c #4D3358",
"=  c #075549",
"-  c #097A4D",
";  c #086E45",
":  c #3A7154",
">  c #39696B",
",  c #3C6368",
"<  c #36756E",
"1  c #3A6A7E",
"2  c #425C48",
"3  c #444C60",
"4  c #405864",
"5  c #425263",
"6  c #098458",
"7  c #088874",
"8  c #308B61",
"9  c #29997A",
"0  c #2A9A69",
"q  c #09A96B",
"w  c #09BA79",
"e  c #08AB7B",
"r  c #23AA7F",
"t  c #26A07C",
"y  c #09C27A",
"u  c #AFD033",
"i  c #97D140",
"p  c #9E6FAF",
"a  c #9A72AE",
"s  c #9279AD",
"d  c #9576AD",
"f  c #8D7DAC",
"g  c #A06DAF",
"h  c #079A85",
"j  c #30868A",
"k  c #2D8F8C",
"l  c #08A481",
"z  c #08AA85",
"x  c #1CBC84",
"c  c #07A992",
"v  c #07B69B",
"b  c #08BB89",
"n  c #24AD9A",
"m  c #26A08A",
"M  c #289FA1",
"N  c #07BCA5",
"B  c #1DBDAB",
"V  c #24AAA8",
"C  c #22B1AB",
"Z  c #43BD9F",
"A  c #4EB887",
"S  c #7C8CA9",
"D  c #6B9CA9",
"F  c #6A9CA6",
"G  c #7394A7",
"H  c #7790A8",
"J  c #7594B5",
"K  c #5AAAA3",
"L  c #58ACA7",
"P  c #49B8A0",
"I  c #47BBA5",
"U  c #52B0A1",
"Y  c #4CBBB2",
"T  c #56B1BB",
"R  c #62A3A4",
"E  c #09C387",
"W  c #19C58A",
"Q  c #18C887",
"!  c #0ADC8B",
"~  c #0AD388",
"^  c #14D28C",
"/  c #11DB8F",
"(  c #1AC597",
")  c #0BDE9C",
"_  c #09D698",
"`  c #1CDF99",
"'  c #11DD93",
"]  c #09CA97",
"[  c #39C69E",
"{  c #32CC9C",
"}  c #37C79D",
"|  c #26D69B",
" . c #2BD29C",
".. c #22DA9B",
"X. c #0AE38E",
"o. c #0DE593",
"O. c #0BEC95",
"+. c #0CED9A",
"@. c #0EE299",
"#. c #13E696",
"$. c #12EA96",
"%. c #14E699",
"&. c #19E199",
"*. c #11E999",
"=. c #18E297",
"-. c #0AF09D",
";. c #20EA88",
":. c #08CBA3",
">. c #07C3AC",
",. c #08CFAC",
"<. c #08C2A2",
"1. c #18CCA9",
"2. c #08D4A9",
"3. c #1DDFA0",
"4. c #15D8A9",
"5. c #07C7B0",
"6. c #08CFB0",
"7. c #1BC2B7",
"8. c #1BC4BA",
"9. c #19CABE",
"0. c #18CAB4",
"q. c #07D4BB",
"w. c #14D7BA",
"e. c #37C8A4",
"r. c #23DAA5",
"t. c #2CD4AB",
"y. c #27D8A6",
"u. c #3EC5B3",
"i. c #38CBB8",
"p. c #28D9BD",
"a. c #29D7B6",
"s. c #31D2BB",
"d. c #32DFB0",
"f. c #0DEDA4",
"g. c #0DEDAA",
"h. c #09E2AA",
"j. c #11E9A2",
"k. c #1BE3AB",
"l. c #13EAAD",
"z. c #17E4A9",
"x. c #0AF1A8",
"c. c #08E1B4",
"v. c #0CEEB2",
"b. c #0DE8BC",
"n. c #13EBBB",
"m. c #17E5B6",
"M. c #0CF1BA",
"N. c #41C2B5",
"B. c #4DD6A8",
"V. c #5EACC5",
"C. c #4BBDC9",
"Z. c #55B4C5",
"A. c #53B6C8",
"S. c #64A5C0",
"D. c #07DBC2",
"F. c #15D3C4",
"G. c #12DDCA",
"H. c #11DEC6",
"J. c #18CDC0",
"K. c #3CCBCD",
"L. c #3CC9C4",
"P. c #2ED6C4",
"I. c #25DDC4",
"U. c #26DECF",
"Y. c #2CD9CC",
"T. c #29DAC4",
"R. c #33D2C5",
"E. c #33D3CD",
"W. c #38CFD0",
"Q. c #27DFD5",
"!. c #2CDAD4",
"~. c #2FD7D3",
"^. c #32D4D2",
"/. c #07E0C6",
"(. c #0CEDC5",
"). c #07E8CC",
"_. c #0CE7C9",
"`. c #1EE5C4",
"'. c #10E3CE",
"]. c #16E8C4",
"[. c #09F8CB",
"{. c #0AF4C7",
"}. c #10F1C9",
"|. c #0FE7D1",
" X c #0EEBD4",
".X c #07ECD1",
"XX c #16EED5",
"oX c #1EE7D9",
"OX c #17EEDA",
"+X c #1BEBDA",
"@X c #1EE7D6",
"#X c #07F2D4",
"$X c #0DF5DC",
"%X c #0AFADF",
"&X c #0CF4D4",
"*X c #12F3DD",
"=X c #11F2D5",
"-X c #22E1C9",
";X c #24E1D6",
":X c #21E5D8",
">X c #38F3DE",
",X c #07FDE0",
"<X c #08FCE0",
"1X c #44C3CC",
"2X c #88AE88",
"3X c #8088A9",
"4X c #8981AB",
"5X c #AAE487",
"6X c #92E8DB",
/* pixels */
"& &           & g g g g g &   #         & & & & g g g & & &   # & g g g g g g g & & & g g g g g g g g g g & &           & & g g ",
"& &   #         g g g g g &         #   & & & g g g g g g & & & g g g g g g g &         & g g g g g g g g g & & & #   & & g g g ",
"& &       #     & & g g g &     #     & g g g g g g g g g g g g g g g g g g &       #   & & & g g g g g g g & & & & & & g g g g ",
"& &           & & g g g g g & &     & g g g g g & g g g g g g g g g g g & & &     #       & g g g g g g g g g g g g & g g g g g ",
"g g g &     & & & g g g g g & & & g g g g g g g & & & & g g g g g g g g g & & #           g g g g g g g g g g g g g g g g g g g ",
"g g g g g g & g g g g g g g g g g g g g g & & #       & & & g g g g g g g g &       #   & g g g g g & & & g g g g g g g g g g & ",
"g g g g g g g g g g g g g g g g g g g g g &           & & g g g g g g g g g g g &     & g g g & & & & & & & g g g g g g & & & & ",
"& & g g g g g g g g g g g g g g g g g g g &     #       & g g g g g g g g g g g g g g g g g g g & &         & g g g g g g & & & ",
"    & & g g g g g g g g g g g g g g g g & &         #   g g g g g & & & g g g g g g g g g g g g &     #     & & g g g g g &     ",
"    & & & g g g g g g g & & & & & & g g g &     #     & g g g g g &         & g g g g g g g & & &             & g g g & &   #   ",
"    # & & g g g g g g & &         & & g g & & &     & & g g g g g   #       & & g g g g g g & & & #       #   g g g g g &       ",
"  #   & g g g g g g & &       #   & & g g g & & & & & & g g g & &             & g g g g g & & & &           & g g g g g & #     ",
"    & & g g g g g & & &     #       & g g g g g g g g g  .Z g g &         #   & g g g g g g g g g & &     & & & g g g g g       ",
"  & & & g g g g g & & &             & g g g g g g g d { O.=.g g & - w 0     & & g g g g g g g g g & & & & & & g g g g g g & &   ",
"& & & & g g g g g g & & &     #   & g g g g & & & 4XZ %.l.t.P U r #.O.~   & & & & g g g g g g g g g g g g g g g g g g g & & & & ",
"& & & & g g g g g g g g & &     & g g g s / o   O ~ #.K.^.l.+.O.O.b.f.o.p p g g g g g g g g g g g g g g g g g g g g g g g & & & ",
"& & g g g g g g g g g g g g g & g g p g r O.@ 2 o.E j *X-X+.O.~.*X+Xl.$.g g g p g g g g g g g g g g g g g g g g g g g g g g & & ",
"& g g g g g g g g g g g g g g g g g p & r X.O X.) H.D.|.g.+.R.%XQ.Z.r.$.g & & * & g g g g g g g g g g g g g g g g g g g g g g g ",
"g g g g g g g & & & & g g g g g g g g K ^ 6 x _ N N .XB n.n.:XXX:X'.c.O.q q o   & & g g g g g g g g g g g g g g g g g g g g g g ",
"g g g g g g         & g g g g g g g a Z @.V c.,.5.D. XQ.;X:X+X*X$XXXv.O.w O.w   & g g g g g g & & g g g g g g g & & & g g g g g ",
"g g g g &       #   & g g g g g p H < W 4.8.G.q.H.<XOX*X;XQ.+X<X$X$X(.] 7 X.q     g g g g g & & & & g g g g g g & & & & & g g g ",
"g g g & &             g g g g g s O.o.+.W j 9.|.*X<X<X<X<X<X<X<X%X%X$X.X&XO.8 .   & & & & &         g g g g g & &         & & g ",
"g g g & &   #   #     g g g g g p S *.t.u.z.R.+X<X*X<X<X<X<X,X<X%X*X+XF.v o.X.; g g g & &     #     & g g g g g     #     & & & ",
"g g g g & &         & g g g g g g g D | k.}.@XW.C.C.^.~.F.J.8.C V k.+.+.h.M.f.O.4Xg g g &             g g g g g             & & ",
"g g g g g g &     & & g g g g g g g a K d.-.Y.^.W.1XK.9.J.>.v 7 e O.j.e.-.&X+.$.g g g g &   #       # g g g g g           # & & ",
"g g g g g g g g g & g g g g g g g & g g F $.B.!.%X'.XX8.,.c.w.c O.+.i.N.-.M.O...g g g g & &         & g g g g g &   #     & & & ",
"g g g g g g g g g g g g g g g & & & & & 3XO.O.Y K.$X X( O.+.z.N O.:.;X].O.O. .g g g g g g & &     & & & g g g & & &     & & g g ",
"g g & g g g g g g g g g g & & & & & & & < y u $. .~.C O.i 5X6XN .X#XF.r.O.G a g g g g g g g & & & & & g g g g g & & & & g g g g ",
"& & & & & & g g g g g g g & & & #       > #.2Xd.Y.1X1Xn A B.>Xq.n 4.+.+.K a & & & g g g g g g g g g g g g g g g & & & g g g g g ",
"& &         & g g g g g g & &           3 O.t.P.~.~.!.8.F. X).>.o.O.r.| U t 3 & & & g g g g g g g g g g g g g g g g g g g g g g ",
"&       #   & & g g g g g & &             9  .O.E.oX$X$X$X+Xw.4.O.i.V.T W O.O.6 +   & g g g g g g g g g g g g g g g g g g g g g ",
"&   #     #   & g g g g g & &     #   #   5 I ..3.^.XX=XXXE.t.O.I.oX~.C.1 = ~ O.~ . & & & g g g g g g & & g g g g g g g g g g g ",
"&       #     & g g g g g & & &         & s  .+.O.O.O.+.O.+.+.I.Z.;X7.M J./.)./.O.o.$ & & p g g g g & & & & & & g g g g g g g g ",
"&           & & g g g g g g & & &     & g s =.{.T.u.p.p.s.s.L.^.;X+X@XG.|.#X/.q.1.E X.4 p p g g g g & &         & g g g g g g g ",
"g & &     & & & g g g g g g g & & & & g g s &.[.K.C J.J.~.~.!.;XOX*X;X0.v.v.h.h.:.c k.` { g g g g g &           & & & g g g g g ",
"g & & & g g g g g g g g g g g g g & g g s R m.(.1.v 2.q.N G.<X*XoX:XR.y.O.O./ q b `.Q.i.O.R g g g & &     #       & & g g g g g ",
"g g g g g g g g g g g g g g g g g s s s R l.$Xw.b ! ' ,.N F.$X*XXXs.r.+.y.$. .g H &.-XT { =.s g g g g   #     #   & & g g g g g ",
"g g g g g g g g g g g & g g g g s | &.&.r.8.(.+.6 X + ! z D.#XH.f.O.%.k.XXO...g a S +.a.C. .o.g g g g g         & & g g g g g g ",
"g g g g g g g g g g g & & & & {  .p.}.p.R.XXx.k O # X O.z 5.&X'.s.N.R.:XU.O.$.g 3X#.| P.!.1.o.g g g g g &     & & g g g g g g & ",
"& g g g g g g g g g g & & & & O.+.A.-X`.^.I.-.> & & X ! ( F.$XXXA.A.~.+XE.O.=.g R o.j c :.~ w & g g g g g g & g g g g g g g & & ",
"& & g g g g g g & &         & x  .L r.n.~.W ^ 4 & & X X.4.G.=XOXV.1X%X~.J %.O.g < W l b ! q 2 & g g g g g g g g g g g g g & & & ",
"  & & g g g g g &     #     & & s ..O.t.i...s & & * 5 O.T.Q.+X*X1X:X<X$X<Xg.&.g & 9 y X.-       & g g g g g g g g g g g &       ",
"  & & g g g g g & #           & g f ..O...3Xa g & , =.u.W.^.1X!.:X^.:X;XT &. .g g & X X . #     & & g g g g g g g g g &   #     ",
"    & g g g g g &             & g g 3XG 3Xg g g F %.i.~.Z.C g.f.g.I.'.|.^.I.t.D g g &         & g g g g g g g g g g g &     #   ",
"#   & g g g g g & &       # & & g g g g g g g K | r.!.^.N. .&.../ O.4.8.|.+Xs.I F g g &     & g g g g g g g g g g g g g   #     ",
"  & & g g g g g & & &     & & & g g g & & g p  .&.1X*XM ' x & & & ! O.b q. XK.a.[ g g & & & g g g g g g g & & g g g g g         ",
"& & & g g g g g g & & & & g g g g g g g & & g [ *.L.*XE.o.W & &   . Q O.e G.OXn.[ s p g g g g g g g g g & & & & & g g g & &     ",
"& & g g g g g g g g g g g g g g g g g g & & & s } j.:XQ.j.^ & &     . ~ o.h +XE.Y | s g g g g g g g g &         g g g g g g & & ",
"g g g g g g g g g g g g g g g g g g g & 4 x Q @.r.P.*X;X+.^ & &       : o.b w.;Xp.O.} S g g g g g g &   #       g g g g g g g & ",
"g g g g g g g g g g g g g g g g & & &   $ O.@.x.n.:X<XXXv.e.& & * #   $ o.4.].:XY.m.O.G g g g g & & &         #   & g g g g g g ",
"g g g g g g & & & g g g g g g & & &     : o.:.{.[.[.[.&Xv.| g g * &   $ o.m -X`.p.n.+.G g g g g g & &             & & g g g g g ",
"g g g & & & & & & g g g g g g & & &     $ O.+.x.-.O.O.+.O.` g g & & * > O.O.O.O.O.O.O.H g g g g g g &     #     & & & g g g g g ",
"g g g & &         & g g g g g g & &   #         * * g g g g g & & & p p g g g g g g g & & & g g g g g & &   # & & & & & g g g g ",
"g g g g   #   #   & & g g g g g & & &     #   & & & g g g g g g & p g g g g g g g & & & & & g g g g g g & & & & & & & & g g g g ",
"g g g g             & g g g g g g & & &     & & & & & g g g g g g g g g g g g & & &         & & g g g g g & & & & & & g g g g g ",
"g g g g   #   #     & & g g g g g g & & & & & & p p g g g g g g g g g g g g & & &     #     & g g g g g g & g g g g g g g g g g ",
"g g g g           & & g g g g g g g g & & & & g g g g g g g g g g g g g g g g & &             g g g g g g g g g g g g g g g g g ",
"g g g g & &     & & g g g g g g g g g g g g g g g g g g g g g & & & g g g g g & &         #   & & & g g g g g g g g g g g g g g ",
"g g g g g g & & & g g g g g g g g g g g g g g g g g g & & & & & & & & g g g g & &   #       & & & g g g g g g g g & & & g g g g ",
"g g g g g g g g g g g g g g g g g g g g g g g g g g & & &         & g g g g g g & & &     & & & g g g g g g g & & & & & & g g g ",
"g g g g g g g g g g g g g g & & & & & g g g g g g g & &       #   & g g g g g g g & & & & & & g g g g g g g g &         & g g g ",
"g g & g g g g g g g g g g & & & & & & & g g g g g g g &     #       & & g g g g g g g g g g g g g g g g g g g   #       & & g g ",
"g & & & & & & & g g g g g & &         & g g g g g g g &   #     #   & & g g g g g g g g g g g g g g g g g & &         #   & g g ",
"g & &     # & g g g g g g &     #     & g g g g g g g &           & g g & g g g g g g g g g g g g g g g g & &     #       & & & "
};
