/* XPM */
static char *cd509713d8a64973f81336ae667a68dfVSuL8hOLKxK2G4iz[] = {
/* columns rows colors chars-per-pixel */
"64 64 11 1 ",
"  c #523333",
". c #4E3057",
"X c #A92ACF",
"o c black",
"O c #010000",
"+ c #020101",
"@ c #060404",
"# c #1A1010",
"$ c #080505",
"% c #090606",
"& c #523336",
/* pixels */
"  ..X.. o..... o.....oo.....o ..... o.....oo....Xoo..X..oo...XXo",
"oo..X..oo..X..oo.XX..o ..X..  ..X..oo..X..o .....oo..X..oo..XX.o",
"oo.X..oooX.X.oo .X..o  .XX.  o....oo ..X.o  .XX.ooo.XX.oo X...oo",
"o ...oooo...oo o...   o...  oo.X.oo  .X.  oo.X.ooo ...oo  ...ooo",
"  .X..oo .... oo.XX.ooo....oo .X..  o....ooo..X.   ....  o.X..  ",
" o.XX..  .....oo..X..oo.....  .....oo.....oo..X..oo..X..oo.....o",
"ooo.X.. oo.XX.o  .XX.o  ....ooo..X.o  .X..ooo...Xooo.XX.ooo.X..o",
".oo.X...o ..X.. o..X.. o.X...oo..X.. o..X..o ...X.o ..X..  ...X.",
".oo ..X. oo....ooo....ooo....o  ....ooo....  o.... oo.... oo..X.",
".o  o.X.ooo .X.oooo.X.oo  XX.  oo...oooo.X. ooo...oooo...oooo..X",
". o  ...oo  .X.oo  .XXoo o.X. oo ..Xoooo...oooo..Xooo ...oooo...",
"Xo  o...o  o.XXo  o...  oo.X.oo  ...ooo ...oo  ...oo  .X.ooo ..X",
".  oo.X.  oo...  oo... ooo...o  o...oo  ...o  o...   o.X.oo  .X.",
". ooo.X. ooo... O+o..Xooo ...o oo.X.  oo.X.  oo.X. ooo...   o...",
".ooo..X.ooo..X.ooo..XXoo ...X oo..X. oo.XX.ooo..X.ooo.... oo.X..",
".ooo..X.ooo.XX.ooo....o  ..XX oo..X.ooo....oooX...ooo....ooo.X..",
"ooo.X..ooo..X.ooo..X.o  .... oo.X..ooo....oo .X..ooo...Xooo.XX. ",
"oo .X..oo ....oo .X.. oo....oo ....o  ....   ....oo ....ooo.X..o",
"o  XX.oo  ...ooo ... oo ..Xoo  ...o  o...  oo...o   .X.oooo...oo",
"  oX..o  oX..o  o...oo  ..X   o.X.  oo.X.oooo.X.  oo...ooo ...oo",
"ooo... oooX..  oo.X.   o... ooo.X.oooo...oooo.X.oooo...o   ...  ",
"ooo... ooo...ooo .X. ooo...ooo .X.oo  ...ooo ...oooo.X.  oo...oo",
"ooo...oo  ...oo  .X.ooo X..oo  ...o  o...oo  ...oooo.X. oo .X.oo",
"oo ..X.  o.XX.   ....   ....  o....ooo.X..  o..X.ooo....   ..X.o",
"oo ..X.ooo..X.ooo.XX. oo....ooo.X..ooo....ooo....o  ..X. oo..X.o",
".   .XX.ooo....ooo.X..oo .X..o  ....oo ..X.ooo..X.ooo....ooo....",
"..oo..X..o .....o .....  .XX.. o..X..  .....o ..X..  ..X..oo....",
"..ooo....  o.X..  o..X. oo....ooo..X.ooo....  o.... oo....ooo..X",
"...ooo....ooo....ooo.X..   ....oo ....oo .X..ooo....ooo....ooo.X",
"X..ooo.XX.oo ..X.o  .... oo.X..   ....o  ....o  ....ooo.X..o  ..",
"XX.oo  .X.  oo...  oo...oooo.X. oooX.. ooo...  oo.X.oooo...  oo.",
".X.o oo.XX ooo... o  .X.oooo...oooo...oooo...oooo.XXoooo...oooo.",
"... ooo...oooo.X.o  o.X.oo  ...oo  ..Xooo .X.oooo...    ...oo  .",
"...ooo ...ooo .X.  oo...o  o.X.   o..Xo  o...oooo... ooo.X.   o.",
"...o  o.X.o  o.X. ooo.X. ooo...oooo...  oo...ooo .X.oooo... ooo.",
".X.  oo.X.  oo...oooo...oo  ...oooo.X.oooo.X.o  o.X.oooo...oooo.",
".X.ooo..X. oo....ooo....o  ..X.ooo....ooo..X.  o..X.oo ....o@#.X",
"XX.ooo.XX.ooo.XX.o  ..X.  o..X.o  ..X.ooo....ooo....  o.X..+$%..",
"...ooo....oo .X..  o....ooo....  o.XX.oo ....ooo....ooo....   ..",
"..oo ....oo .X.. oo..X. oo.X..  o..X.o  ..X.ooo..X.ooo....  o...",
"X.o  .X..o  ....ooo....ooo.X..ooo....  o....o  ....ooo.X..ooo...",
".   o.X.o  o...oooo..X ooo...oooo..Xoooo.X.   o.X.oo  .X.oooo..X",
". oo.X..o  .X..ooo.... o ....oo ..X.ooo.X.. oo.XX.   ....ooo..XX",
".oo.....  ..X..oo..X..  ..X..  .....oo..X..oo..... o..X..oo.....",
"ooo....  o.XX.ooo.XX.  o..X.  o.XX.oo ....ooo....ooo..X.   ....o",
"ooo.X.  oo...oooo... ooo.X. ooo.X.   o.X.oo  ...oooo...  oo.X.oo",
"ooo.X.oooo...o   .X.oooo...oooo... ooo.X.o  o.X.oo  .X.oooo.X.oo",
"o  .X..ooo....   ....o  ....o  ....ooo.... oo....  o....ooo.... ",
"   ....ooo.XX. oo....  o.X..  o.X..oo ..X.ooo....ooo....o  ..X.o",
".oo..X..  ..X..oo..X..oo.X...oo.....  .....  ..X..oo..X.. o...X.",
".ooo.XX.o  ....   ....   .X..ooo....ooo.... oo.X..o  ....ooo..X.",
"..  .....oo.....oo.....oo.XX..  ..X..o ..X..oo.....ooX....oo....",
"..ooo....   .X..o  .X..ooo....ooo.X..  o.X..oo ....ooo....ooo...",
"X.o  .X..ooo.XX. oo.XX.   ....ooo....ooo....   ..XXooo.X..o  ...",
"XX. ooXX..oo ....ooo....ooo.X..o  ....ooo.X..ooo..X.oooXX..ooo.X",
".X.oo ....   .XX.oo ..X.ooo.XX.  o..X.oo ....ooo....oo ....ooo.X",
"...  ooXX. ooo.X.o  o.X.oooo...oooo...   o..Xoooo...  oo.X.oooo.",
"XX. oo....ooo..X.  o..X.oo ..X.ooo..X. oo..XXooo..X.ooo....ooo..",
"X..o  ....ooo....ooo....  o....ooo..X.ooo..X.o  ..X.ooo.X..ooo..",
"..o  o.X.oooo.X.oooo... ooo...oo  .X.oooo...   o...oooo.X.o   ..",
".. oooXX.ooo .X.oo  .X.oooo.X.   o...oooo... ooo...oooo...  oo..",
"..ooo.X..o  ....   .XX.ooo.XX. oo..X.ooo..X.ooo..X.oo ....ooo...",
"..oo..... o..X..oo..X..oo.X...oo..XX.o ..XX.oo..XX.  ..X..oo...X",
".ooo.... o ....ooo....o &....ooo....   ....ooo....ooo.X..oo .XX."
};
